<svg width="15" height="11" viewBox="0 0 15 11" fill="none" xmlns="http://www.w3.org/2000/svg">
<path d="M14.708 0.291956C14.8012 0.384848 14.8751 0.495199 14.9255 0.616689C14.9759 0.73818 15.0018 0.868422 15.0018 0.999957C15.0018 1.13149 14.9759 1.26173 14.9255 1.38322C14.8751 1.50471 14.8012 1.61507 14.708 1.70796L5.70804 10.708C5.61515 10.8011 5.5048 10.875 5.38331 10.9254C5.26182 10.9758 5.13158 11.0017 5.00004 11.0017C4.86851 11.0017 4.73827 10.9758 4.61678 10.9254C4.49528 10.875 4.38493 10.8011 4.29204 10.708L0.292042 6.70796C0.104269 6.52018 -0.0012207 6.26551 -0.0012207 5.99996C-0.0012207 5.73441 0.104269 5.47973 0.292042 5.29196C0.479816 5.10418 0.734491 4.99869 1.00004 4.99869C1.26559 4.99869 1.52027 5.10418 1.70804 5.29196L5.00004 8.58596L13.292 0.291956C13.3849 0.19883 13.4953 0.124944 13.6168 0.0745316C13.7383 0.0241187 13.8685 -0.00183105 14 -0.00183105C14.1316 -0.00183105 14.2618 0.0241187 14.3833 0.0745316C14.5048 0.124944 14.6152 0.19883 14.708 0.291956Z" fill="#FEFEFE"/>
</svg>
